<?xml version="1.0" encoding="UTF-8" standalone="no"?>
<!-- Created with Inkscape (http://www.inkscape.org/) -->

<svg
   version="1.1"
   id="svg233"
   width="128"
   height="128"
   viewBox="0 0 128 128"
   sodipodi:docname="favicon.svg"
   inkscape:version="1.1.1 (3bf5ae0d25, 2021-09-20)"
   xmlns:inkscape="http://www.inkscape.org/namespaces/inkscape"
   xmlns:sodipodi="http://sodipodi.sourceforge.net/DTD/sodipodi-0.dtd"
   xmlns:xlink="http://www.w3.org/1999/xlink"
   xmlns="http://www.w3.org/2000/svg"
   xmlns:svg="http://www.w3.org/2000/svg">
  <defs
     id="defs237">
    <linearGradient
       inkscape:collect="always"
       id="linearGradient13076">
      <stop
         style="stop-color:#0250a3;stop-opacity:1"
         offset="0"
         id="stop13072" />
      <stop
         style="stop-color:#083c72;stop-opacity:1;"
         offset="0.83997452"
         id="stop13816" />
      <stop
         style="stop-color:#0f2842;stop-opacity:0.99966651"
         offset="1"
         id="stop13074" />
    </linearGradient>
    <radialGradient
       inkscape:collect="always"
       xlink:href="#linearGradient13076"
       id="radialGradient13078"
       cx="628.02991"
       cy="559.51605"
       fx="628.02991"
       fy="559.51605"
       r="422.25134"
       gradientUnits="userSpaceOnUse"
       gradientTransform="translate(118.44531,32.078125)" />
    <filter
       inkscape:collect="always"
       style="color-interpolation-filters:sRGB"
       id="filter14230"
       x="-0.095046696"
       y="-0.097672155"
       width="1.1900934"
       height="1.1953443">
      <feGaussianBlur
         inkscape:collect="always"
         stdDeviation="29.548504"
         id="feGaussianBlur14232" />
    </filter>
  </defs>
  <sodipodi:namedview
     id="namedview235"
     pagecolor="#ffffff"
     bordercolor="#666666"
     borderopacity="1.0"
     inkscape:pageshadow="2"
     inkscape:pageopacity="0"
     inkscape:pagecheckerboard="0"
     showgrid="false"
     fit-margin-top="0"
     fit-margin-left="0"
     fit-margin-right="0"
     fit-margin-bottom="0"
     inkscape:zoom="1"
     inkscape:cx="1.5"
     inkscape:cy="162.5"
     inkscape:window-width="2376"
     inkscape:window-height="1286"
     inkscape:window-x="0"
     inkscape:window-y="0"
     inkscape:window-maximized="1"
     inkscape:current-layer="g239"
     width="128px" />
  <g
     inkscape:groupmode="layer"
     inkscape:label="Image"
     id="g239"
     transform="translate(-435.02272,-330.05071)">
    <g
       id="g575"
       transform="matrix(0.14492754,0,0,0.14419096,390.8379,308.74818)"
       style="stroke-width:6.9176">
      <circle
         style="fill:url(#radialGradient13078);fill-opacity:1;fill-rule:evenodd;stroke:none;stroke-width:13.8353;stop-color:#000000"
         id="path10629"
         cx="746.47522"
         cy="591.59418"
         r="422.25134" />
    </g>
    <path
       fill-rule="evenodd"
       clip-rule="evenodd"
       fill="#575756"
       d="m 1252.0609,762.71976 -113.8774,18.67696 c -1.8847,32.27438 -9.5614,62.44803 -22.8049,90.46114 -13.1975,28.01313 -31.1987,52.70733 -53.236,73.89415 -21.6833,21.18683 -47.0394,38.42496 -76.0409,51.36046 -28.67965,13.28943 -59.16128,20.42373 -91.88156,22.62563 l -13.2435,107.2948 -17.95523,-107.2948 c -34.51765,-2.2019 -66.52083,-9.3362 -95.51767,-22.62562 -29.04282,-12.9309 -54.04501,-30.5322 -75.32377,-51.71901 -21.32013,-21.504 -38.55827,-46.64411 -51.80176,-74.97442 -12.83436,-28.37167 -20.55705,-58.54071 -22.40038,-91.17824 l -112.0387,-16.52105 112.0387,-14.31913 c 1.83873,-32.32496 9.56142,-62.494 22.40038,-90.46115 13.24349,-27.97175 30.47703,-52.75329 52.16031,-73.94012 21.68328,-21.19141 47.04402,-38.071 76.04087,-50.95593 29.04282,-12.52638 60.64148,-20.11118 94.44202,-21.90853 l 17.95523,-110.16778 14.36512,109.13351 c 32.67431,2.1559 63.20191,9.69471 91.84024,22.57966 28.6383,12.93088 53.999,30.48162 75.6823,51.67304 21.6787,21.54997 39.3214,46.32691 52.5189,74.29867 13.2434,28.32571 20.9201,58.1316 22.8049,89.73945 z M 790.9752,557.779 c -28.59233,14.36972 -53.23597,31.2493 -73.43907,50.64336 -20.60302,19.39404 -37.07349,42.01967 -49.95842,68.1481 l 109.11969,43.81245 4.04063,-6.46316 -59.51985,-106.57765 114.9577,56.34342 2.60181,-1.07565 z m -14.27779,256.25066 -1.83872,-4.67037 -108.00269,42.02427 c 24.59767,55.25858 64.2362,95.44412 118.63976,119.50397 l 48.52421,-103.70464 -4.80369,-1.79737 -108.00269,55.9389 z M 1089.7006,679.48945 C 1065.7787,626.3776 1027.9789,587.59409 975.77723,562.44939 l -50.67554,101.95783 5.47484,3.94869 107.28097,-61.00921 -57.32253,110.52634 c 1.16755,1.07565 2.24321,2.15592 2.96495,3.59013 0.35856,1.07565 1.48013,2.87302 2.60179,4.67038 z M 923.97547,866.46579 c -0.7171,0.35854 -2.56044,0.7171 -5.47483,0.7171 l 52.47288,103.70464 c 51.13058,-23.70129 89.68888,-61.73092 115.76678,-113.75792 l -104.31605,-44.89731 -2.96495,3.59013 58.3982,105.502 z m 1.83873,-103.02891 c 0,-12.52638 -4.04061,-22.58426 -12.83896,-30.84477 -8.43519,-7.90197 -19.11825,-12.2092 -32.00317,-12.2092 -13.19752,0 -24.55172,4.31183 -33.75458,12.2092 -9.56142,8.26052 -13.96059,18.31839 -13.96059,30.84477 0,13.28946 4.39917,24.423 13.96059,34.07176 9.20286,9.69473 20.55706,14.72365 33.75458,14.72365 12.88492,0 23.56798,-5.02893 32.00317,-14.72365 8.79835,-9.64876 12.83896,-20.7823 12.83896,-34.07176 z m 47.04406,-203.86053 c -11.39558,-4.26585 -23.15889,-7.90195 -35.28075,-11.08756 -12.12186,-2.87302 -24.60227,-5.38749 -37.47801,-6.50912 l 17.2795,119.55452 c 0,1.43882 1.12163,2.15592 3.68206,2.15592 z M 771.18121,801.82047 647.73776,783.18949 c 2.56044,24.37702 8.79835,46.64411 19.12284,67.11841 l 106.87646,-42.74139 z m 87.75362,188.81966 -19.07688,-121.65988 -2.96496,-1.79736 -48.83678,105.4974 c 7.72268,5.02895 18.40113,8.97762 31.60324,11.85065 13.60205,2.87761 26.43641,4.67039 39.27538,6.10919 z M 666.8606,679.48945 c -11.0416,26.16978 -17.27951,47.71976 -19.12284,65.32105 l 125.9993,-16.88418 1.12163,-2.87303 z m 247.59942,191.64672 -16.19926,119.50396 c 11.39556,-1.4388 23.15887,-3.23158 34.92218,-6.10459 11.7633,-2.87303 23.11749,-6.8217 33.80054,-11.85065 L 917.38361,868.98025 c -0.009,1.43881 -1.13082,2.15592 -2.92359,2.15592 z m 191.35718,-84.35655 -119.71549,17.90927 -0.76311,3.59013 101.4017,44.89731 c 5.1163,-11.13354 9.1569,-22.26708 11.7633,-33.04207 2.9144,-11.13353 5.5162,-22.26707 7.3136,-33.35464 z M 858.93483,541.97507 c -12.83897,1.12163 -23.88057,2.91899 -33.75458,5.07491 -9.91997,2.15591 -20.20309,5.34153 -31.2401,8.93166 l 47.03943,105.54797 z M 1105.8172,744.8059 c -1.4802,-11.85524 -2.919,-22.63022 -5.1623,-32.32496 -2.1559,-9.69473 -5.4748,-19.7526 -9.1569,-30.16904 l -103.24033,45.60981 z m 3.6774,-73.93552 c -11.3588,-28.01772 -28.2752,-53.11185 -50.6755,-75.01578 -22.0418,-22.26707 -46.6809,-40.2269 -73.4805,-53.87492 l -5.8793,12.25516 c 54.3576,28.68885 94.0421,69.26972 119.7614,122.33563 z m -322.1555,-123.14926 -5.87936,-8.5731 c -30.52299,11.08757 -56.964,27.96715 -79.35979,49.88027 -22.40039,22.26707 -39.63853,48.48284 -52.51886,79.32762 l 12.47582,4.62441 c 23.52201,-57.3777 65.39919,-99.03424 125.28219,-125.2592 z m 307.8364,312.99861 c -29.7599,55.98489 -70.5615,95.08556 -122.31724,116.63094 l 5.83794,11.49209 c 58.3982,-27.65457 101.4063,-68.18948 128.9643,-122.37698 z M 775.98031,987.7671 782.5354,976.63356 c -27.51666,-11.13352 -51.75578,-26.93285 -73.07591,-47.3612 -21.68328,-20.11576 -37.48261,-44.49278 -48.52421,-73.223 l -12.47582,3.59013 c 26.07786,59.22104 68.71811,101.91185 127.52085,128.12761 z M 882.86136,712.12239 c 5.87936,1.07567 11.71734,3.23158 17.64266,5.74604 6.19653,2.15592 10.63248,5.02895 13.956,8.26052 l 23.11749,-22.62563 c -9.1569,-7.90196 -17.59669,-13.28945 -26.08245,-16.16248 -8.07664,-2.87302 -17.63807,-4.67037 -28.6337,-5.02894 z m -5.5254,-29.80588 c -20.55705,1.07565 -38.55826,9.33616 -54.76212,25.14009 l 22.03724,18.67694 c 5.87936,-5.02894 11.0416,-8.26051 15.48675,-9.69472 4.39917,-1.79737 9.874,-3.23158 17.23813,-4.31184 z m 87.08708,79.36898 c -1.48018,-10.77499 -3.72803,-20.11576 -7.00098,-28.37629 -2.91899,-8.61907 -8.4398,-17.23814 -16.16248,-25.8572 l -22.75894,20.46971 c 9.91997,10.0579 15.03625,21.19143 15.03625,33.76377 z m 0,6.42178 h -30.88615 c -1.07566,7.54341 -2.20189,13.28945 -3.32351,17.90927 -0.71712,4.35321 -4.04062,9.0236 -9.1569,14.00657 l 19.07687,20.46971 c 13.60663,-12.9263 21.68328,-30.48162 24.28969,-52.38555 z m -167.52253,0 c 0.71711,10.05787 2.91899,19.75261 6.59647,29.04282 4.04062,9.33617 9.51545,17.59669 17.2841,25.14009 l 19.07687,-20.46971 c -5.16224,-4.98297 -8.43519,-10.41644 -10.63707,-16.47508 -1.83874,-5.74603 -2.60182,-11.49207 -2.60182,-17.23813 z m 85.96085,77.53025 c 11.00023,0 20.15713,-1.79736 28.27514,-5.38749 8.08125,-3.94869 16.52104,-9.33618 25.36535,-16.16248 l -19.12284,-20.47431 c -5.16225,3.23158 -9.55683,6.1046 -12.83436,8.61906 -3.68208,2.15593 -10.68306,4.67039 -21.68329,6.46316 z m -5.5254,-26.93747 c -14.31914,0 -24.95623,-4.67038 -32.72488,-14.00656 l -20.15253,20.47431 c 7.67672,6.10459 15.75336,11.13354 23.88057,15.08223 8.43979,3.59013 17.95524,5.38749 28.99684,5.38749 z m -50.72149,-57.01456 c 0,-12.56775 4.39917,-23.70588 13.23888,-33.76377 l -20.96157,-17.59669 c -6.60105,7.90196 -11.35878,15.80392 -15.3994,23.70128 -3.67747,7.90196 -5.87936,16.88418 -6.59646,27.65917 z m 302.00303,21.50401 -14.3651,2.82704 c -0.3586,12.25517 -2.5604,24.423 -5.4749,35.91509 -3.3235,11.49669 -7.3641,23.34734 -12.5263,35.91509 l 11.4001,5.74604 c 12.8895,-26.21576 19.8445,-53.15322 20.9662,-80.40326 z m -232.15411,-259.8408 1.79737,11.13354 c 13.23889,0.7171 26.43642,2.87302 39.67989,6.46315 13.19753,3.94868 26.08245,7.856 38.59967,12.16323 l 5.8793,-12.16323 c -13.96057,-4.31184 -28.27512,-8.26051 -42.64024,-11.49209 -14.32374,-3.54877 -28.64289,-5.38749 -43.31599,-6.1046 z m -37.52856,473.04208 c -24.23912,-2.51907 -48.8414,-8.98223 -73.43907,-19.0401 l -4.75772,11.49209 c 21.68327,11.85523 48.47824,18.67693 80.08149,20.47433 z m 39.32134,0 -2.919,12.93092 c 14.71908,-0.7171 28.27515,-2.5145 40.80153,-6.1046 12.43444,-3.59016 24.96082,-7.90659 37.79523,-13.65263 l -2.96499,-11.13354 c -23.1129,10.77039 -47.35203,16.51644 -72.71277,17.95985 z M 1128.6175,746.60326 c -0.4046,-12.21378 -2.5604,-24.42299 -5.5209,-36.27823 -3.3235,-11.85065 -7.3181,-24.05985 -12.4803,-36.58623 l -9.5615,5.74604 c 3.2775,10.37046 5.8794,21.50402 8.4398,32.9961 2.6018,11.49209 4.3992,22.62563 4.7578,33.40521 z m -468.76248,104.7803 c -7.35953,-15.08222 -12.11726,-26.93286 -13.55607,-35.55653 -1.88471,-8.61907 -3.36489,-19.70665 -4.44514,-32.63754 l -14.31915,-2.87303 c 1.12163,13.648 3.67747,26.52834 6.95501,38.74214 3.68208,12.21379 8.08125,24.78615 13.24348,38.071 z m -32.31576,-104.7803 14.31915,-0.71711 c 1.07565,-14.36971 3.3235,-26.93746 6.23791,-38.071 2.91899,-10.77499 6.95961,-21.18682 11.7587,-31.2447 l -11.40016,-5.70008 c -10.27852,24.37243 -17.23814,49.51253 -20.9156,75.73289 z M 860.81953,523.3487 c -12.48041,0.7171 -25.36535,1.79736 -37.84116,3.59012 -12.12186,2.15592 -25.00219,5.38749 -37.48261,10.41643 l 3.68207,9.33618 c 11.00023,-3.23159 22.03723,-5.74605 33.80054,-8.26052 12.07129,-2.51447 24.23911,-4.31183 37.12406,-4.67039 z"
       id="path14067-3"
       style="mix-blend-mode:normal;fill:#ffffff;fill-opacity:1;stroke-width:6.9176;filter:url(#filter14230)"
       transform="matrix(0.14492754,0,0,0.14419096,371.63141,283.88881)" />
    <path
       fill-rule="evenodd"
       clip-rule="evenodd"
       fill="#575756"
       d="m 553.08952,393.8661 -16.50398,2.69305 c -0.27314,4.65368 -1.38571,9.00444 -3.30505,13.04368 -1.91268,4.03924 -4.52155,7.59992 -7.71537,10.65487 -3.1425,3.05495 -6.8173,5.54053 -11.02042,7.40571 -4.15647,1.91622 -8.5741,2.94492 -13.31616,3.26242 l -1.91935,15.47094 -2.60221,-15.47094 c -5.00256,-0.3175 -9.6407,-1.3462 -13.84314,-3.2624 -4.20911,-1.86453 -7.83261,-4.40247 -10.91649,-7.45743 -3.08987,-3.10068 -5.58815,-6.72566 -7.5075,-10.81063 -1.86005,-4.09094 -2.97928,-8.44103 -3.24643,-13.14708 l -16.2375,-2.38219 16.2375,-2.06468 c 0.26648,-4.66097 1.38571,-9.01107 3.24643,-13.04368 1.91935,-4.03328 4.41696,-7.60655 7.55946,-10.6615 3.14251,-3.05561 6.81798,-5.4895 11.02042,-7.34739 4.2091,-1.80619 8.78862,-2.89985 13.68725,-3.15901 l 2.60221,-15.8852 2.0819,15.73607 c 4.73541,0.31086 9.1597,1.39789 13.31018,3.25578 4.15048,1.86452 7.82594,4.39518 10.96845,7.45079 3.14184,3.10731 5.69875,6.67992 7.61143,10.71319 1.91934,4.08432 3.0319,8.38206 3.30506,12.93962 z M 486.2655,364.3155 c -4.14382,2.07198 -7.71536,4.50587 -10.64334,7.30231 -2.98595,2.79645 -5.37297,6.05886 -7.24035,9.82634 l 15.81444,6.31736 0.5856,-0.93193 -8.62606,-15.36753 16.66053,8.12421 0.37708,-0.1551 z m -2.06925,36.94903 -0.26648,-0.67343 -15.65256,6.05952 c 3.56488,7.96779 9.30959,13.76218 17.19417,17.2314 l 7.03249,-14.95328 -0.69618,-0.25916 -15.65257,8.06588 z m 45.36279,-19.39948 c -3.46694,-7.65825 -8.94518,-13.25048 -16.51064,-16.87612 l -7.34428,14.70139 0.79346,0.56937 15.54796,-8.79698 -8.30761,15.9369 c 0.16921,0.1551 0.3251,0.31087 0.4297,0.51767 0.052,0.1551 0.21452,0.41426 0.37708,0.67342 z m -24.01814,26.96029 c -0.10393,0.0517 -0.37108,0.1034 -0.79345,0.1034 l 7.60476,14.95328 c 7.41023,-3.41752 12.99839,-8.90105 16.7778,-16.40287 l -15.11827,-6.47377 -0.4297,0.51765 8.4635,15.21243 z m 0.26648,-14.85583 c 0,-1.80619 -0.58559,-3.25645 -1.86071,-4.44754 -1.2225,-1.13939 -2.77077,-1.76046 -4.63815,-1.76046 -1.91268,0 -3.55822,0.62173 -4.89196,1.76046 -1.38572,1.19109 -2.02328,2.64135 -2.02328,4.44754 0,1.91622 0.63756,3.52157 2.02328,4.91284 1.33374,1.39789 2.97928,2.12301 4.89196,2.12301 1.86738,0 3.41565,-0.72512 4.63815,-2.12301 1.27512,-1.39127 1.86071,-2.99662 1.86071,-4.91284 z m 6.81798,-29.39485 c -1.65153,-0.6151 -3.35636,-1.13939 -5.11315,-1.59872 -1.75679,-0.41427 -3.56554,-0.77683 -5.43159,-0.93856 l 2.50427,17.23868 c 0,0.20746 0.16256,0.31086 0.53363,0.31086 z m -29.22855,34.92941 -17.89036,-2.68642 c 0.37108,3.51495 1.27512,6.72566 2.77143,9.67787 l 15.48934,-6.16292 z m 12.71791,27.22609 -2.76476,-17.54225 -0.42971,-0.25917 -7.07779,15.21177 c 1.11923,0.72513 2.66683,1.2945 4.58018,1.70876 1.97131,0.41493 3.83136,0.67343 5.69208,0.88089 z m -27.83684,-44.86511 c -1.60024,3.77344 -2.50428,6.88075 -2.77143,9.4187 l 18.26077,-2.43455 0.16255,-0.41426 z m 35.88397,27.63372 -2.34772,17.23139 c 1.65153,-0.20746 3.35636,-0.46596 5.06119,-0.88023 1.70482,-0.41426 3.35036,-0.98362 4.89863,-1.70875 l -7.18839,-14.95327 c -10e-4,0.20746 -0.16389,0.31086 -0.42371,0.31086 z m 27.73293,-12.16345 -17.35007,2.58235 -0.1106,0.51767 14.6959,6.47378 c 0.74149,-1.60535 1.32709,-3.21071 1.70482,-4.76436 0.42238,-1.60536 0.79945,-3.21071 1.05995,-4.80944 z m -35.78006,-35.2986 c -1.86072,0.16172 -3.46095,0.42089 -4.89197,0.73175 -1.43767,0.31086 -2.92798,0.7702 -4.52755,1.28787 l 6.81731,15.21906 z m 35.78006,29.24637 c -0.21453,-1.70942 -0.42305,-3.26308 -0.74816,-4.66097 -0.31245,-1.39789 -0.79345,-2.84815 -1.32709,-4.3501 l -14.96237,6.57652 z m 0.53295,-10.66084 c -1.6462,-4.0399 -4.09785,-7.65824 -7.34427,-10.81659 -3.19447,-3.21071 -6.76535,-5.80036 -10.64935,-7.76828 l -0.85207,1.76708 c 7.87791,4.13668 13.62929,9.98807 17.35672,17.6397 z m -46.6892,-17.75701 -0.85208,-1.23616 c -4.42362,1.59873 -8.25565,4.03261 -11.50142,7.19228 -3.24643,3.21071 -5.74472,6.99079 -7.61143,11.43833 l 1.80809,0.6668 c 3.40899,-8.27335 9.47814,-14.27984 18.15684,-18.06125 z m 44.61397,45.13157 c -4.31303,8.07252 -10.2263,13.71048 -17.72714,16.81713 l 0.84608,1.65706 c 8.46351,-3.98754 14.69657,-9.83231 18.69048,-17.64566 z m -46.26017,18.31909 0.95001,-1.60536 c -3.98792,-1.60535 -7.50084,-3.88347 -10.59071,-6.82906 -3.14251,-2.90051 -5.43226,-6.41545 -7.0325,-10.55809 l -1.80809,0.51766 c 3.7794,8.53914 9.95915,14.69477 18.48129,18.47485 z m 15.49001,-39.74548 c 0.85208,0.1551 1.69816,0.46598 2.5569,0.82853 0.89805,0.31086 1.54094,0.72513 2.02261,1.19109 l 3.35036,-3.26241 c -1.32708,-1.13939 -2.55024,-1.91622 -3.78006,-2.33048 -1.17053,-0.41427 -2.55625,-0.67343 -4.14981,-0.72513 z m -0.80079,-4.29773 c -2.97928,0.1551 -5.58815,1.34618 -7.93654,3.62498 l 3.19381,2.69304 c 0.85208,-0.72513 1.60023,-1.19109 2.24445,-1.3979 0.63756,-0.25916 1.43102,-0.46596 2.49828,-0.62173 z m 12.62132,11.44429 c -0.21452,-1.55365 -0.5403,-2.90051 -1.01464,-4.0916 -0.42304,-1.24279 -1.22316,-2.48559 -2.34238,-3.72838 l -3.2984,2.95155 c 1.43768,1.45026 2.17916,3.05561 2.17916,4.86843 z m 0,0.92596 h -4.47626 c -0.15589,1.08769 -0.31911,1.91622 -0.48166,2.58236 -0.10393,0.62768 -0.5856,1.30112 -1.32709,2.01961 l 2.76476,2.95155 c 1.97198,-1.86386 3.14251,-4.39518 3.52025,-7.55352 z m -24.27863,0 c 0.10393,1.45026 0.42304,2.84814 0.95601,4.18772 0.5856,1.34619 1.37905,2.53728 2.50494,3.62497 l 2.76477,-2.95155 c -0.74815,-0.7185 -1.22249,-1.50195 -1.54161,-2.37555 -0.26648,-0.82853 -0.37707,-1.65706 -0.37707,-2.48559 z m 12.4581,11.17917 c 1.59423,0 2.92132,-0.25917 4.09784,-0.77684 1.1712,-0.56937 2.39436,-1.34618 3.67614,-2.33049 l -2.77143,-2.9522 c -0.74815,0.46597 -1.38504,0.88022 -1.86005,1.2428 -0.53363,0.31085 -1.54827,0.67342 -3.1425,0.93191 z m -0.80079,-3.88414 c -2.07524,0 -3.61684,-0.67343 -4.74273,-2.01962 l -2.92066,2.95221 c 1.11257,0.88022 2.2831,1.60534 3.46095,2.17471 1.22316,0.51766 2.60221,0.77684 4.20244,0.77684 z m -7.35094,-8.22099 c 0,-1.81215 0.63756,-3.41817 1.91868,-4.86843 l -3.03791,-2.53728 c -0.95667,1.13939 -1.6462,2.27878 -2.2318,3.41751 -0.53296,1.13939 -0.85208,2.43454 -0.956,3.9882 z m 43.76856,3.10069 -2.0819,0.40763 c -0.052,1.76708 -0.37107,3.52158 -0.79346,5.17863 -0.48167,1.65771 -1.06727,3.36648 -1.81541,5.17863 l 1.65219,0.82853 c 1.86804,-3.78008 2.87601,-7.66422 3.03858,-11.59342 z m -33.64553,-37.4667 0.26049,1.60536 c 1.91868,0.1034 3.83137,0.41426 5.75071,0.93193 1.91269,0.56936 3.78007,1.13276 5.59416,1.75382 l 0.85207,-1.75382 c -2.02327,-0.62173 -4.09784,-1.1911 -6.17975,-1.65706 -2.0759,-0.5117 -4.15114,-0.77683 -6.27768,-0.88023 z m -5.43892,68.20839 c -3.51291,-0.36322 -7.07846,-1.29515 -10.64334,-2.74541 l -0.68953,1.65706 c 3.14251,1.70942 7.02584,2.69304 11.60602,2.95221 z m 5.69875,0 -0.42305,1.86452 c 2.1332,-0.10339 4.09785,-0.36256 5.91327,-0.88022 1.80209,-0.51767 3.61751,-1.14006 5.47757,-1.96859 l -0.42971,-1.60535 c -3.3497,1.55299 -6.86261,2.38152 -10.53808,2.58964 z m 33.3857,-36.0171 c -0.0586,-1.76112 -0.37107,-3.52157 -0.80013,-5.23099 -0.48167,-1.70876 -1.0606,-3.46921 -1.80874,-5.27541 l -1.38573,0.82853 c 0.475,1.49533 0.85209,3.10069 1.22316,4.75774 0.37708,1.65706 0.63757,3.26241 0.68954,4.81673 z m -67.9366,15.10837 c -1.06659,-2.17472 -1.75612,-3.88347 -1.96464,-5.12693 -0.27315,-1.24279 -0.48767,-2.84152 -0.64423,-4.70604 l -2.07524,-0.41426 c 0.16256,1.96792 0.53297,3.82515 1.00798,5.58627 0.53363,1.76111 1.17119,3.57393 1.91934,5.48949 z m -4.68344,-15.10837 2.07524,-0.1034 c 0.15589,-2.07198 0.48167,-3.88414 0.90405,-5.48949 0.42304,-1.55366 1.00863,-3.05495 1.70415,-4.50521 l -1.65219,-0.8219 c -1.48964,3.51429 -2.49828,7.13926 -3.03125,10.92 z m 33.80874,-32.19129 c -1.80876,0.1034 -3.67614,0.25916 -5.48423,0.51766 -1.75679,0.31087 -3.62351,0.77683 -5.43226,1.50196 l 0.53363,1.34619 c 1.59424,-0.46596 3.1938,-0.82853 4.89863,-1.19109 1.74946,-0.36256 3.51292,-0.62173 5.3803,-0.67343 z"
       id="path14067"
       style="fill:#ffffff;fill-opacity:1;stroke-width:1" />
  </g>
</svg>
